# xmcd
#
# Track frame offsets: 
#        150
#        16035
#        33635
#        49805
#        59897
#        77290
#        88957
#        101730
#        118137
#        129535
#        144077
#        157840
#
# Disc length: 2314 seconds
#
# Revision: 0
# Processed by: cddbd v1.5.2PL0 Copyright (c) Steve Scherf et al.
# Submitted via: ExactAudioCopy v0.99pb4
#
DISCID=9a09080c
DTITLE=ยอดรัก สลักใจ - ปัดฝุ่น 9
DYEAR=2000
DGENRE=Country
TTITLE0=เอาแน่
TTITLE1=เกี๊ยะลอยน้ำ
TTITLE2=ช้ำดวงใจ
TTITLE3=ยอดรักเมา
TTITLE4=คืนส่งตัว
TTITLE5=รักซิ่ง
TTITLE6=เมาตาลาย
TTITLE7=จากเธอด้ว'วงใจ
TTITLE8=ไม่เหมือนเดิม
TTITLE9=วันครึ้มใจ
TTITLE10=เธอเปลี่ยนไปเพราะยาคุม
TTITLE11=(ดนตรี)เอาแน่
EXTD=
EXTT0=
EXTT1=
EXTT2=
EXTT3=
EXTT4=
EXTT5=
EXTT6=
EXTT7=
EXTT8=
EXTT9=
EXTT10=
EXTT11=
PLAYORDER=
